<?xml version="1.0" encoding="UTF-8" standalone="no"?>
<!-- Created with Inkscape (http://www.inkscape.org/) -->

<svg
   xmlns:dc="http://purl.org/dc/elements/1.1/"
   xmlns:cc="http://creativecommons.org/ns#"
   xmlns:rdf="http://www.w3.org/1999/02/22-rdf-syntax-ns#"
   xmlns:svg="http://www.w3.org/2000/svg"
   xmlns="http://www.w3.org/2000/svg"
   xmlns:sodipodi="http://sodipodi.sourceforge.net/DTD/sodipodi-0.dtd"
   xmlns:inkscape="http://www.inkscape.org/namespaces/inkscape"
   width="125mm"
   height="125mm"
   viewBox="0 0 125 125"
   version="1.1"
   id="svg8"
   inkscape:version="0.92.2 (5c3e80d, 2017-08-06)"
   sodipodi:docname="logo.svg">
  <defs
     id="defs2" />
  <sodipodi:namedview
     id="base"
     pagecolor="#ffffff"
     bordercolor="#666666"
     borderopacity="1.0"
     inkscape:pageopacity="0.0"
     inkscape:pageshadow="2"
     inkscape:zoom="0.7"
     inkscape:cx="68.943122"
     inkscape:cy="318.46925"
     inkscape:document-units="mm"
     inkscape:current-layer="layer1"
     showgrid="true"
     showguides="false"
     inkscape:snap-nodes="false"
     inkscape:window-width="1920"
     inkscape:window-height="1025"
     inkscape:window-x="0"
     inkscape:window-y="27"
     inkscape:window-maximized="1">
    <inkscape:grid
       type="xygrid"
       id="grid5479" />
  </sodipodi:namedview>
  <metadata
     id="metadata5">
    <rdf:RDF>
      <cc:Work
         rdf:about="">
        <dc:format>image/svg+xml</dc:format>
        <dc:type
           rdf:resource="http://purl.org/dc/dcmitype/StillImage" />
        <dc:title></dc:title>
      </cc:Work>
    </rdf:RDF>
  </metadata>
  <g
     inkscape:label="Calque 1"
     inkscape:groupmode="layer"
     id="layer1"
     transform="translate(0,-172)">
    <path
       sodipodi:type="star"
       style="fill:#00b200;fill-opacity:1;stroke:#d40000;stroke-width:5.56500006;stroke-miterlimit:4;stroke-dasharray:none;stroke-opacity:0"
       id="path815"
       sodipodi:sides="3"
       sodipodi:cx="104.32143"
       sodipodi:cy="108.0119"
       sodipodi:r1="42.501736"
       sodipodi:r2="36.807583"
       sodipodi:arg1="0.89883316"
       sodipodi:arg2="1.9460307"
       inkscape:flatsided="true"
       inkscape:rounded="0.83"
       inkscape:randomized="0"
       d="M 130.77976,141.27381 C 82.962374,179.31036 71.318538,174.72389 62.286607,114.29454 53.254676,53.865191 63.048598,46.074571 119.89791,68.467363 c 56.84932,22.392792 58.69923,34.769887 10.88185,72.806447 z"
       inkscape:transform-center-y="-1.898591"
       transform="rotate(-82.902763,160.11136,199.47904)"
       inkscape:transform-center-x="3.6802397" />
    <ellipse
       style="fill:#ff0700;fill-opacity:1;stroke:#00f036;stroke-width:0;stroke-miterlimit:4;stroke-dasharray:none;stroke-opacity:1"
       id="path4634-8-9"
       cx="39.10479"
       cy="259.54697"
       rx="6.2878957"
       ry="5.6932545"
       inkscape:transform-center-x="4.6577033"
       inkscape:transform-center-y="0.75910543" />
    <ellipse
       style="fill:#ff0700;fill-opacity:1;stroke:#00f036;stroke-width:0;stroke-miterlimit:4;stroke-dasharray:none;stroke-opacity:1"
       id="path4634-8-0"
       cx="77.182159"
       cy="274.47052"
       rx="6.0989079"
       ry="5.6932545"
       inkscape:transform-center-x="4.5177116"
       inkscape:transform-center-y="0.75910543" />
    <path
       style="fill:#ffeb00;fill-opacity:1;fill-rule:nonzero;stroke:#0000ff;stroke-width:0.58410019;stroke-miterlimit:4;stroke-dasharray:none;stroke-opacity:0"
       d="m 29.69357,248.9114 c -0.09921,-0.25152 3.212255,-1.89186 4.320928,-2.14041 1.328893,-0.2979 1.413316,-1.55931 0.121576,-1.81631 -0.396623,-0.0789 -0.685195,0.0512 -1.046201,0.47185 -0.520095,0.60599 -4.307084,2.70022 -4.204149,2.32494 0.03241,-0.11817 0.511836,-0.72622 1.065388,-1.35124 0.55356,-0.625 1.352432,-1.65775 1.775266,-2.29497 l 0.768793,-1.15857 3.047742,-0.7342 3.04774,-0.73419 1.02817,1.38065 1.028178,1.38066 -1.196776,1.13328 c -3.317101,3.14109 -2.948307,2.90693 -4.798363,3.04662 -0.926772,0.0701 -2.354883,0.2633 -3.173559,0.42954 -1.659293,0.33691 -1.676185,0.33752 -1.784718,0.0623 z"
       id="path5450"
       inkscape:connector-curvature="0"
       inkscape:transform-center-x="-3.9986252"
       inkscape:transform-center-y="-0.92652062" />
    <rect
       style="fill:#ef9600;fill-opacity:1;fill-rule:nonzero;stroke:#0000ff;stroke-width:0.71540868;stroke-miterlimit:4;stroke-dasharray:none;stroke-opacity:0"
       id="rect5452"
       width="4.4889264"
       height="1.8067189"
       x="204.10361"
       y="-30.965631"
       transform="matrix(0.37810275,0.92576364,-0.97622845,0.2167441,0,0)"
       inkscape:transform-center-x="-12.324083"
       inkscape:transform-center-y="-2.9869288" />
    <path
       style="opacity:1;fill:#0a10bf;fill-opacity:1;fill-rule:nonzero;stroke:#d40000;stroke-width:0.44201922;stroke-miterlimit:4;stroke-dasharray:none;stroke-opacity:0"
       d="m 39.320633,242.36576 c -0.928992,-0.85338 -1.073888,-1.07688 -0.8743,-1.34848 0.5267,-0.71672 4.865096,-5.19371 6.104079,-6.29905 2.441828,-2.1785 7.931388,-5.137 27.881698,-15.02632 8.1467,-4.03831 8.9584,-4.35556 10.19795,-3.98572 1.18797,0.35443 1.1278,1.34837 -0.14737,2.43407 -2.11519,1.80095 -16.82509,12.52602 -23.51849,17.14748 -5.13321,3.54422 -6.31322,4.1814 -10.55837,5.70134 -2.69582,0.96521 -7.241644,2.3823 -7.674976,2.39247 -0.163219,0.003 -0.797812,-0.45329 -1.410255,-1.0159 z"
       id="path5406"
       inkscape:connector-curvature="0"
       inkscape:transform-center-x="-31.2089"
       inkscape:transform-center-y="-17.774688" />
    <ellipse
       style="fill:#ff0700;fill-opacity:1;stroke:#00f036;stroke-width:0;stroke-miterlimit:4;stroke-dasharray:none;stroke-opacity:1"
       id="path4634-8-3"
       cx="89.49028"
       cy="258.18872"
       rx="6.4768839"
       ry="5.8822427"
       inkscape:transform-center-x="4.7977002"
       inkscape:transform-center-y="0.78429501" />
    <ellipse
       style="fill:#ff0700;fill-opacity:1;stroke:#00f036;stroke-width:0;stroke-miterlimit:4;stroke-dasharray:none;stroke-opacity:1"
       id="path4634-8-9-7"
       cx="64.887756"
       cy="259.17227"
       rx="5.5319433"
       ry="5.6932549"
       inkscape:transform-center-x="4.0977442"
       inkscape:transform-center-y="0.75910544" />
  </g>
</svg>
